<svg width="91" height="90" viewBox="0 0 91 90" fill="none" xmlns="http://www.w3.org/2000/svg">
<path d="M45.5261 86.4193C68.2854 86.4193 86.7357 67.969 86.7357 45.2097C86.7357 22.4502 68.2854 4 45.5261 4C22.7666 4 4.31641 22.4502 4.31641 45.2097C4.31641 67.969 22.7666 86.4193 45.5261 86.4193Z" stroke="#F37A20" stroke-width="6.68265" stroke-linecap="round" stroke-linejoin="round"/>
<path d="M48.4675 61.793L48.4673 61.7925C48.2688 61.2976 47.9279 60.8708 47.4879 60.5671C47.0511 60.2659 46.5353 60.0992 46.0039 60.0874C45.6426 60.0856 45.2851 60.1545 44.95 60.2906L48.4675 61.793ZM48.4675 61.793C48.6662 62.2881 48.7145 62.8316 48.606 63.3559C48.4975 63.8785 48.2374 64.3579 47.858 64.7344C47.4785 65.1105 46.9966 65.3664 46.472 65.4703C45.9481 65.5741 45.4051 65.5209 44.9115 65.3177L44.9103 65.3172M48.4675 61.793L44.9103 65.3172M44.9103 65.3172C44.4166 65.1142 43.9938 64.7701 43.6942 64.3273L43.6939 64.3268M44.9103 65.3172L43.6939 64.3268M43.6939 64.3268C43.3966 63.8876 43.2344 63.3705 43.2276 62.8395M43.6939 64.3268L43.2276 62.8395M44.8309 50.6574V50.6873C44.8309 50.9935 44.953 51.2887 45.1707 51.5063C45.3878 51.7235 45.6825 51.8456 45.9897 51.8456C46.2967 51.8456 46.5917 51.7234 46.8088 51.5063L46.8093 51.5058C47.0258 51.2894 47.148 50.9949 47.148 50.6873V50.6596L47.1487 50.6318L47.7279 27.3763L47.7301 27.2864L47.7396 27.1969C47.7659 26.9493 47.7396 26.6986 47.6625 26.4612L47.662 26.4595C47.5849 26.2218 47.4588 26.0032 47.292 25.8178L47.2919 25.8177C47.1251 25.6323 46.9209 25.4837 46.6928 25.3819L44.8309 50.6574ZM44.8309 50.6574L44.8301 50.6276M44.8309 50.6574L44.8301 50.6276M44.8301 50.6276L44.2064 27.372L44.2041 27.2842M44.8301 50.6276L44.2041 27.2842M44.2041 27.2842L44.1948 27.1969M44.2041 27.2842L44.1948 27.1969M44.1948 27.1969C44.1686 26.9493 44.1948 26.6986 44.2719 26.4612L44.2725 26.4595M44.1948 27.1969L44.2725 26.4595M44.2725 26.4595C44.3495 26.2218 44.4756 26.0032 44.6424 25.8178L44.6425 25.8177M44.2725 26.4595L44.6425 25.8177M44.6425 25.8177C44.8095 25.632 45.014 25.4834 45.2424 25.3815M44.6425 25.8177L45.2424 25.3815M43.2276 62.8395C43.2289 62.4774 43.301 62.12 43.4393 61.7878L43.2276 62.8395ZM45.2424 25.3815C45.4709 25.2799 45.718 25.2275 45.967 25.2275M45.2424 25.3815L45.967 25.2275M45.967 25.2275C46.2166 25.2275 46.4636 25.28 46.692 25.3815L45.967 25.2275ZM43.4396 61.7871C43.5808 61.449 43.7864 61.1439 44.0444 60.8883C44.3038 60.6314 44.6115 60.4283 44.9494 60.2908L43.4396 61.7871Z" stroke="#F37A20" stroke-width="4.4551"/>
</svg>
