<svg width="210" height="75" viewBox="0 0 210 75" fill="none" xmlns="http://www.w3.org/2000/svg">
<path d="M67.0517 39.5597C67.0515 40.3515 66.9098 41.1369 66.6331 41.8795C66.3803 42.5938 65.9722 43.2441 65.4379 43.7843C64.7594 44.4605 63.953 44.9969 63.065 45.3627C62.1928 45.7189 61.1072 45.8969 59.8083 45.8969H56.9486V51.6528H52.3614V33.982H59.9155C61.0468 33.982 62 34.079 62.7752 34.273C63.5065 34.4474 64.2033 34.7421 64.8367 35.1448C65.5331 35.589 66.0999 36.2069 66.4804 36.9367C66.8608 37.6654 67.0513 38.5398 67.0517 39.5597ZM62.3072 39.661C62.3189 39.1999 62.176 38.748 61.901 38.3763C61.6628 38.0433 61.3358 37.783 60.9567 37.6246C60.5117 37.4422 60.0388 37.3361 59.558 37.311C59.1044 37.2907 58.4978 37.2808 57.7382 37.2813H56.9512V42.5622H58.266C59.0459 42.5622 59.6893 42.5149 60.1963 42.4202C60.663 42.3431 61.1017 42.1472 61.4695 41.8517C61.7572 41.6101 61.9774 41.299 62.109 40.9484C62.2403 40.5956 62.3059 40.1665 62.3059 39.661H62.3072Z" fill="#F37A20"/>
<path d="M83.786 44.9948C83.786 47.1888 83.1424 48.9155 81.8551 50.1751C80.5678 51.4347 78.761 52.0655 76.4347 52.0677C74.108 52.0677 72.3012 51.4368 71.0143 50.1751C69.7275 48.9134 69.0838 47.1866 69.0834 44.9948C69.0834 42.7876 69.7309 41.055 71.026 39.7972C72.3211 38.5393 74.124 37.9104 76.4347 37.9104C78.7779 37.9104 80.5888 38.5432 81.8675 39.8088C83.1461 41.0744 83.7856 42.8031 83.786 44.9948ZM78.4904 48.2348C78.7808 47.8723 78.9943 47.4552 79.1183 47.0087C79.2573 46.5299 79.3271 45.8673 79.3275 45.0207C79.3275 44.2373 79.2558 43.5806 79.1124 43.0506C78.969 42.5207 78.7697 42.0974 78.5145 41.7807C78.2783 41.4706 77.9596 41.2321 77.5942 41.0922C77.2232 40.9559 76.8303 40.8877 76.4347 40.8909C76.0597 40.885 75.6863 40.9411 75.3298 41.0567C75.007 41.1677 74.6981 41.3893 74.403 41.7214C74.1405 42.0298 73.9314 42.4531 73.7759 42.9913C73.6203 43.5294 73.5425 44.2059 73.5425 45.0207C73.5425 45.7485 73.6103 46.3794 73.746 46.9132C73.8816 47.4471 74.0809 47.8773 74.3439 48.2038C74.5858 48.5025 74.9002 48.7353 75.2577 48.88C76.0084 49.1586 76.834 49.165 77.589 48.8981C77.9457 48.7644 78.2578 48.5347 78.4904 48.2348Z" fill="#F37A20"/>
<path d="M108.278 38.3253L104.118 51.6527H99.5507L96.8151 42.6686L94.1134 51.6527H89.4989L85.3751 38.3253H89.8889L92.1935 47.5107L95.0571 38.3253H98.8702L101.593 47.5107L103.858 38.3253H108.278Z" fill="#F37A20"/>
<path d="M124.067 45.7782H114.218C114.282 46.8223 114.682 47.6213 115.419 48.1754C116.156 48.7295 117.242 49.0063 118.677 49.0059C119.58 49.0069 120.475 48.842 121.318 48.5193C122.171 48.1954 122.844 47.8474 123.339 47.4753H123.816V50.9049C122.927 51.2673 122.007 51.5493 121.067 51.7476C120.125 51.9282 119.167 52.0146 118.207 52.0057C115.514 52.0057 113.45 51.4035 112.016 50.199C110.581 48.9945 109.864 47.2817 109.864 45.0607C109.864 42.8611 110.544 41.1189 111.902 39.834C113.26 38.549 115.123 37.9063 117.491 37.9059C119.675 37.9059 121.317 38.4537 122.416 39.5494C123.515 40.6451 124.065 42.2215 124.065 44.2786L124.067 45.7782ZM119.788 43.2739C119.765 42.3804 119.542 41.708 119.119 41.2568C118.696 40.8055 118.039 40.5801 117.147 40.5805C116.318 40.5805 115.637 40.7941 115.103 41.2213C114.569 41.6485 114.27 42.3327 114.207 43.2739H119.788Z" fill="#F37A20"/>
<path d="M136.833 42.3944H136.452C136.269 42.3316 135.975 42.2843 135.569 42.2524C135.163 42.2206 134.826 42.2047 134.555 42.2047C134.011 42.1995 133.468 42.2392 132.93 42.3234C132.415 42.4149 131.908 42.5498 131.415 42.7267V51.6528H127.1V38.3253H131.415V40.2837C132.362 39.4767 133.185 38.9407 133.885 38.6757C134.585 38.4107 135.23 38.2782 135.818 38.2782C135.969 38.2782 136.14 38.2821 136.331 38.2898C136.521 38.2976 136.688 38.3098 136.831 38.3253L136.833 42.3944Z" fill="#F37A20"/>
<path d="M147.555 51.9967C146.233 51.9967 145.012 51.8031 143.892 51.4159C142.815 51.0543 141.829 50.4639 141.005 49.686C140.2 48.9185 139.577 47.9611 139.135 46.8138C138.692 45.6666 138.471 44.3414 138.471 42.8383C138.471 41.4381 138.682 40.169 139.105 39.0312C139.5 37.9348 140.128 36.9354 140.945 36.1004C141.718 35.317 142.676 34.7118 143.82 34.2846C144.963 33.8574 146.212 33.6438 147.567 33.6438C148.245 33.6392 148.922 33.6808 149.593 33.7684C150.155 33.8436 150.712 33.9526 151.261 34.0949C151.755 34.2315 152.24 34.3998 152.713 34.5988C153.146 34.7847 153.527 34.9568 153.855 35.1151V39.399H153.328C153.106 39.2106 152.824 38.9865 152.483 38.7266C152.115 38.447 151.73 38.1905 151.33 37.9588C150.878 37.7008 150.402 37.4872 149.908 37.3212C149.38 37.1459 148.826 37.0587 148.27 37.0631C147.644 37.0599 147.021 37.1622 146.429 37.3658C145.825 37.5803 145.275 37.9214 144.816 38.3659C144.345 38.8163 143.964 39.4126 143.674 40.1546C143.383 40.8967 143.238 41.7938 143.24 42.8461C143.24 43.9512 143.398 44.8761 143.713 45.6207C144.028 46.3654 144.424 46.9496 144.902 47.3733C145.369 47.7971 145.923 48.1145 146.527 48.3031C147.099 48.4848 147.695 48.5786 148.296 48.5812C148.857 48.5807 149.415 48.4972 149.951 48.3335C150.482 48.1747 150.99 47.9485 151.463 47.6604C151.841 47.4405 152.205 47.1961 152.551 46.9287C152.886 46.6706 153.161 46.4463 153.376 46.2557H153.854V50.4803C153.407 50.6786 152.981 50.8644 152.575 51.0378C152.159 51.2156 151.732 51.3665 151.296 51.4895C150.757 51.6459 150.211 51.7728 149.658 51.8696C149.149 51.9539 148.448 51.9962 147.555 51.9967Z" fill="#1F1F21"/>
<path d="M165.114 50.2403C164.883 50.4123 164.596 50.6221 164.254 50.8694C163.949 51.0915 163.625 51.2859 163.285 51.4502C162.864 51.6395 162.423 51.7808 161.97 51.8715C161.478 51.966 160.977 52.0116 160.476 52.0077C159.201 52.0077 158.134 51.6162 157.273 50.8333C156.412 50.0503 155.982 49.0497 155.983 47.8315C155.983 46.8584 156.202 46.0626 156.64 45.444C157.079 44.8254 157.7 44.3388 158.505 43.9844C159.302 43.6282 160.29 43.375 161.469 43.2249C162.649 43.0747 163.872 42.964 165.139 42.8925V42.8216C165.139 42.0855 164.835 41.5771 164.229 41.2961C163.622 41.0152 162.73 40.8748 161.552 40.8748C160.78 40.8847 160.014 41.0109 159.28 41.249C158.476 41.4981 157.898 41.69 157.548 41.8246H157.152V38.6105C157.607 38.4918 158.346 38.3513 159.369 38.1892C160.387 38.0276 161.417 37.9462 162.447 37.9459C164.894 37.9459 166.661 38.3197 167.749 39.0674C168.837 39.815 169.381 40.9879 169.38 42.586V51.6528H165.114V50.2403ZM165.114 48.1664V45.3981C164.533 45.4459 163.903 45.5104 163.225 45.5917C162.548 45.673 162.034 45.7696 161.684 45.8815C161.254 46.0157 160.925 46.211 160.698 46.4674C160.471 46.7237 160.357 47.0608 160.357 47.4785C160.352 47.7054 160.376 47.9321 160.429 48.1528C160.476 48.3249 160.596 48.4905 160.788 48.6497C160.979 48.8118 161.203 48.9309 161.445 48.9988C161.699 49.0736 162.098 49.111 162.64 49.111C163.089 49.1081 163.533 49.0205 163.949 48.8529C164.373 48.6903 164.767 48.4582 165.114 48.1664Z" fill="#1F1F21"/>
<path d="M187.347 44.8051C187.347 46.9018 186.764 48.6107 185.598 49.9318C184.432 51.2529 182.977 51.9135 181.234 51.9135C180.486 51.9135 179.829 51.8343 179.264 51.676C178.699 51.518 178.157 51.2867 177.653 50.9881L177.473 51.6528H173.336V33.187H177.65V39.7139C178.274 39.2152 178.953 38.7891 179.674 38.444C180.362 38.1201 181.156 37.9579 182.056 37.9575C183.751 37.9575 185.056 38.5647 185.972 39.7791C186.887 40.9935 187.345 42.6689 187.347 44.8051ZM182.912 44.8942C182.912 43.7095 182.71 42.7971 182.304 42.1569C181.898 41.5168 181.175 41.197 180.134 41.1974C179.71 41.2 179.288 41.2619 178.881 41.3813C178.451 41.5039 178.038 41.6811 177.653 41.9085V48.589C177.939 48.6938 178.235 48.7693 178.536 48.8142C178.868 48.8573 179.202 48.8772 179.537 48.8736C180.674 48.8736 181.521 48.5419 182.078 47.8786C182.635 47.2152 182.913 46.2204 182.912 44.8942Z" fill="#1F1F21"/>
<path d="M202.121 47.4275C202.121 48.8041 201.499 49.9138 200.256 50.7565C199.013 51.5992 197.312 52.0206 195.152 52.0206C193.957 52.0206 192.874 51.9098 191.903 51.6883C190.931 51.4667 190.151 51.2215 189.563 50.9526V47.4398H189.958C190.174 47.5899 190.423 47.754 190.704 47.9321C191.087 48.1586 191.489 48.3512 191.905 48.5077C192.396 48.7038 192.902 48.8605 193.418 48.9762C194.014 49.1095 194.624 49.1745 195.235 49.1698C196.08 49.1698 196.706 49.0768 197.112 48.891C197.518 48.7052 197.722 48.4303 197.722 48.0663C197.722 47.7416 197.602 47.505 197.363 47.3565C197.124 47.2081 196.669 47.0677 195.998 46.9352C195.679 46.8642 195.246 46.7872 194.698 46.7042C194.197 46.6301 193.7 46.5291 193.21 46.4015C191.991 46.0845 191.086 45.5919 190.497 44.9239C189.908 44.2558 189.613 43.4232 189.612 42.426C189.612 41.1441 190.224 40.0779 191.447 39.2274C192.67 38.3769 194.342 37.9517 196.461 37.9517C197.432 37.948 198.4 38.0495 199.348 38.2543C200.268 38.4565 200.987 38.6716 201.505 38.8996V42.2705H201.135C200.461 41.8174 199.727 41.4599 198.953 41.2084C198.155 40.9382 197.317 40.7998 196.473 40.7986C195.78 40.7986 195.196 40.8935 194.722 41.0832C194.248 41.2729 194.011 41.542 194.011 41.8904C194.011 42.2073 194.118 42.4479 194.336 42.6144C194.554 42.7809 195.058 42.9467 195.854 43.1126C196.292 43.1986 196.764 43.2847 197.271 43.3707C197.777 43.4567 198.285 43.5615 198.795 43.6849C199.926 43.9779 200.763 44.4388 201.305 45.0678C201.847 45.6967 202.119 46.4833 202.121 47.4275Z" fill="#1F1F21"/>
<path d="M7.87909 54.7739C8.38018 54.3655 8.89948 53.9764 9.37912 53.5479C11.5037 51.6437 11.9405 49.7821 10.8941 47.2017C10.4437 46.0918 9.95561 44.9929 9.56305 43.8643C9.05286 42.3976 9.00736 40.909 9.58125 39.4345C9.60783 39.3726 9.6264 39.3075 9.63649 39.2409C9.64169 39.1996 9.61895 39.1558 9.5611 38.9183C9.14385 39.6713 8.80004 40.2902 8.46142 40.8999C8.33144 39.8281 8.91637 38.2879 10.042 37.449C11.1209 36.6457 12.3629 36.0404 13.4802 35.3796C12.1413 35.4732 10.9708 36.1598 9.85032 36.9889C10.0531 34.1556 14.6598 32.5946 18.1226 34.2052C18.6867 32.3714 20.2823 31.5854 21.926 30.8498C23.1647 30.2936 24.4386 29.7948 25.6228 29.1476C26.3065 28.7695 26.842 28.1532 27.362 27.5454C26.4326 28.2707 25.6312 29.1915 24.0571 28.8359C24.3366 28.6953 24.512 28.6424 24.6323 28.5391C25.1418 28.0952 25.7839 27.7125 26.105 27.164C26.8641 25.8664 27.4699 24.4862 28.2231 22.9633C27.8377 23.3505 27.5231 23.6008 27.2983 23.9099C26.8433 24.5378 26.4638 25.2172 25.9984 25.838C25.5623 26.4187 24.9657 26.8059 24.1552 26.8453C25.1594 26.3 25.342 25.3611 25.5987 24.4132C25.8827 23.3647 26.3227 22.3535 26.699 21.3159C26.2012 21.2927 25.7683 21.5857 25.4739 22.0361C25.1126 22.5884 24.8013 23.1711 24.499 23.7538C23.8829 24.9288 23.0178 25.7877 21.5555 25.9006C21.2483 25.9152 20.9408 25.879 20.6456 25.7935C22.5304 25.354 22.9477 24.0099 22.9743 22.4742C23.0029 20.8423 23.3214 19.3408 24.7044 18.1825C23.4124 18.4258 22.2607 19.2878 20.7951 18.7316C21.0057 18.6574 21.1435 18.589 21.289 18.56C22.1814 18.3799 22.8547 17.9018 23.2564 17.1404C24.269 15.2207 25.5864 13.5959 27.9326 12.7616L26.3669 12.1311C27.1852 12.0492 27.8748 12.0898 28.4753 11.8891C29.0758 11.6885 29.6042 11.2439 30.1995 10.8819L28.3888 10.0734C28.4129 10.0088 28.4376 9.9443 28.4616 9.87977H30.7708C30.7793 9.81524 30.7884 9.75652 30.7968 9.69458L30.0371 9.24869C32.7538 8.9751 35.3314 8.41887 37.9564 9.05511C38.2346 9.11964 38.5992 8.9209 38.9092 8.80733C39.5013 8.59116 40.083 8.34789 40.6686 8.11624L40.9084 8.36338C40.7173 8.80862 40.5256 9.25386 40.3579 9.6436C40.8298 10.2037 41.299 10.8477 41.8618 11.4071C42.5079 12.0524 43.2267 12.626 43.9325 13.2139C44.1788 13.4204 44.496 13.5546 44.7274 13.7733C45.1986 14.2199 45.2701 15.0349 44.8574 15.3394C43.8981 16.0531 43.4568 16.4325 42.7776 15.624C42.6086 15.4233 42.2076 15.3265 41.908 15.3149C41.4153 15.2949 40.9194 15.393 40.4236 15.4246C39.3739 15.4891 38.3256 15.5433 37.4989 14.6935L37.2935 14.7709C37.2935 15.2588 37.1596 15.7924 37.3241 16.2228C37.5931 16.9287 38.0104 17.5953 38.4465 18.2283C39.2088 19.333 40.0187 20.41 40.8512 21.4689C40.9493 21.5947 41.3913 21.6444 41.5297 21.5456C42.1712 21.0901 42.7646 20.5719 43.369 20.0699C43.5822 19.8925 43.7642 19.6782 43.9871 19.515C44.949 18.8097 45.439 18.8471 46.3567 19.5853C47.0206 20.1309 47.715 20.6389 48.4365 21.1069C49.943 22.0599 50.7074 23.4163 50.9517 25.0734C50.9918 25.3405 50.9565 25.6135 50.8497 25.8619C50.7847 26.0045 50.4597 26.1845 50.3369 26.1348C49.6598 25.8773 48.9972 25.5837 48.352 25.2553C47.9354 25.045 47.9705 24.7681 48.2929 24.4461C48.883 23.8583 48.9214 23.5428 48.2779 23.0524C47.5698 22.5293 46.8096 22.0798 46.009 21.7108C45.4241 21.4353 44.9178 21.5734 44.5519 22.2148C43.7005 23.706 42.7711 25.1572 41.9476 26.7033C42.5423 26.1122 43.1026 25.4844 43.7427 24.9411C44.2412 24.5178 44.8476 24.261 45.5723 24.4371C46.1306 24.5733 46.449 24.8682 46.6161 25.4095C46.9014 26.3323 47.1763 27.2757 47.6248 28.1294C48.0485 28.9347 48.2097 29.678 48.0388 30.5762C47.7365 32.143 47.4915 33.7019 45.9837 34.7144C45.7764 34.8537 45.5723 34.9976 45.2857 35.1957C44.5961 34.1181 44.0619 33.0618 44.056 31.8371C44.056 31.6861 44.3992 31.3951 44.5675 31.4048C46.1306 31.497 46.1163 30.8014 45.9921 29.7225C45.9288 29.2761 45.7871 28.8441 45.5736 28.4462C45.0926 27.5086 44.4395 27.3873 43.6836 28.1313C43.1351 28.6855 42.635 29.285 42.1888 29.9232C41.4413 30.9621 40.7375 32.0294 40.0362 33.0973C39.7151 33.5864 39.2901 33.7426 38.6876 33.7948C38.0851 33.8471 37.4306 34.0123 36.9049 34.3014C35.2677 35.2009 33.6617 36.1559 32.083 37.1464C31.4967 37.5167 30.9707 37.9736 30.5232 38.5015C29.7582 39.4048 29.4976 40.4547 29.8609 41.6072C30.3107 43.0319 30.143 44.396 29.4268 45.7208C28.9517 46.5996 28.5624 47.5198 28.0938 48.4012C26.8895 50.6661 27.167 52.862 28.5156 54.9449C29.3566 56.2439 30.3783 57.4357 31.2895 58.6946C31.6794 59.2373 31.9979 59.8284 32.4301 60.5298H27.7818C28.0691 60.1245 28.3135 59.8032 28.5318 59.4664C28.7684 59.1024 28.7197 58.8211 28.3011 58.563C28.0808 58.4275 27.8527 58.1416 27.8293 57.9054C27.7025 56.6401 27.1293 55.5825 26.2694 54.6468C25.8184 54.1551 25.3595 53.6718 24.8948 53.1892C24.033 52.2903 23.7042 51.2708 24.0883 50.0783C24.4477 48.9626 24.7064 47.8082 25.1789 46.739C25.5292 45.946 25.3894 45.2917 25.1217 44.7329C25.1217 45.1929 25.3316 45.9066 25.0599 46.3589C24.8129 46.7706 24.046 46.9068 23.5001 47.1513C21.2422 48.1663 20.5436 49.8331 21.5334 52.1922C22.2334 53.8583 23.0932 55.4644 23.8732 57.0963C24.4015 58.1932 24.928 59.2941 25.4941 60.4736H21.02C21.3384 60.0445 21.6342 59.6348 21.9461 59.2295C22.2451 58.8424 22.1671 58.6307 21.7082 58.3984C21.4483 58.2694 21.1974 57.9293 21.1526 57.6531C20.7626 55.2701 19.8358 53.1201 18.2656 51.2165C17.4389 50.2144 17.4577 49.4175 18.3046 48.409C18.7472 47.8824 19.3055 47.432 19.6818 46.8694C20.1952 46.1015 20.6209 45.2749 21.0174 44.4444C21.3677 43.7114 21.0089 43.1184 20.4883 42.557C19.7084 41.7181 19.0234 40.8019 18.2136 39.9953C17.8341 39.6388 17.361 39.3959 16.8487 39.2945C15.2818 38.9925 13.6641 39.8411 12.9336 41.2768C13.4236 40.9341 13.8552 40.567 14.3465 40.3089C14.8502 40.0398 15.4124 39.8701 16.0071 39.7281C14.9899 40.5179 14.2133 41.431 13.8747 42.6383C13.542 43.7869 13.5196 45.0022 13.8097 46.1621C13.8441 44.549 13.9234 42.9493 15.1193 41.6452C14.6578 43.4752 15.6243 45.0929 15.9375 46.7926C16.3275 48.9097 15.6776 50.6094 13.9819 51.9638C12.2187 53.3756 10.1103 54.1667 7.87909 54.7739Z" fill="#F37A20"/>
<path d="M55.4856 60.402C55.4893 60.5734 55.4493 60.743 55.3693 60.895C55.2914 61.0369 55.1798 61.1578 55.0443 61.2473C54.8923 61.3468 54.7234 61.4181 54.5458 61.4577C54.3355 61.506 54.1202 61.5294 53.9043 61.5274C53.799 61.5274 53.6937 61.5228 53.5891 61.5151C53.4845 61.5074 53.3844 61.497 53.2875 61.4848C53.1907 61.4725 53.1004 61.4583 53.0152 61.4422C52.9301 61.4261 52.8527 61.4093 52.7832 61.3912V60.8705C52.9497 60.9309 53.1217 60.9756 53.2966 61.004C53.5115 61.0383 53.7289 61.0545 53.9466 61.0524C54.0965 61.055 54.2462 61.0411 54.3931 61.0111C54.5005 60.9905 54.6028 60.9495 54.6946 60.8905C54.7681 60.8423 54.8271 60.7755 54.8656 60.6969C54.9022 60.6139 54.9203 60.5242 54.9189 60.4336C54.9216 60.3346 54.8897 60.2377 54.8285 60.1594C54.7624 60.0787 54.6826 60.0101 54.5926 59.9568C54.4863 59.8932 54.3747 59.8386 54.2592 59.7935C54.1344 59.7445 54.007 59.6937 53.877 59.6412C53.747 59.5883 53.6171 59.5315 53.4942 59.4702C53.3743 59.4117 53.2623 59.3384 53.1608 59.2521C53.064 59.1696 52.984 59.0695 52.9249 58.9572C52.8622 58.8326 52.8312 58.6945 52.8345 58.5552C52.835 58.4176 52.8642 58.2816 52.9203 58.1558C52.98 58.0205 53.0708 57.9009 53.1855 57.8067C53.3217 57.6956 53.4785 57.6119 53.647 57.5602C53.8642 57.4932 54.0909 57.4614 54.3183 57.466C54.3833 57.466 54.4581 57.4692 54.5361 57.4751C54.614 57.4809 54.694 57.4899 54.7739 57.5009C54.8539 57.5118 54.9332 57.5247 55.0118 57.5389C55.0904 57.5531 55.1626 57.568 55.2295 57.5841V58.0681C55.0755 58.0242 54.9188 57.9903 54.7603 57.9667C54.6097 57.9439 54.4576 57.9323 54.3053 57.9319C53.9938 57.9319 53.7652 57.9833 53.6197 58.0861C53.5507 58.1311 53.4944 58.1927 53.456 58.2651C53.4176 58.3376 53.3983 58.4185 53.4 58.5004C53.3974 58.5998 53.4293 58.6971 53.4903 58.7759C53.5561 58.8578 53.636 58.9275 53.7262 58.9818C53.8323 59.0463 53.9438 59.1014 54.0597 59.1463L54.4418 59.2992C54.5718 59.3515 54.7018 59.4089 54.8246 59.4715C54.945 59.5311 55.057 59.606 55.158 59.6941C55.255 59.7788 55.335 59.8808 55.394 59.9948C55.457 60.1213 55.4884 60.2609 55.4856 60.402Z" fill="#1F1F21"/>
<path d="M61.8367 61.4725H59.573V57.5196H61.8367V57.9713H60.1183V59.1973H61.773V59.649H60.1183V61.0105H61.8399L61.8367 61.4725Z" fill="#1F1F21"/>
<path d="M68.6752 61.4725H68.063L67.4683 60.2084C67.4308 60.124 67.3851 60.0434 67.3318 59.9677C67.29 59.9097 67.2391 59.8587 67.181 59.8167C67.1275 59.7796 67.0676 59.7525 67.0043 59.7367C66.9338 59.7198 66.8616 59.7115 66.7891 59.7122H66.5331V61.4725H65.991V57.5196H67.0576C67.2591 57.5156 67.4601 57.5411 67.6542 57.5951C67.8042 57.6365 67.9439 57.7086 68.0643 57.8067C68.169 57.8949 68.2497 58.0079 68.2989 58.1351C68.3499 58.2709 68.3753 58.4148 68.3737 58.5597C68.3744 58.6785 68.3558 58.7966 68.3184 58.9095C68.2825 59.018 68.2275 59.1194 68.1559 59.2089C68.0805 59.3012 67.9898 59.38 67.8875 59.4418C67.7739 59.51 67.6499 59.5595 67.5203 59.5883C67.6327 59.6268 67.7316 59.6967 67.805 59.7896C67.8981 59.9084 67.9782 60.0367 68.0441 60.1723L68.6752 61.4725ZM67.8069 58.6049C67.8069 58.3933 67.7419 58.2352 67.6074 58.1306C67.4729 58.0261 67.287 57.9732 67.0452 57.9732H66.5331V59.2799H66.9718C67.0885 59.2812 67.2049 59.2665 67.3175 59.236C67.4118 59.2102 67.5002 59.1664 67.5775 59.1069C67.649 59.0502 67.7062 58.9777 67.7445 58.8953C67.7869 58.8043 67.8082 58.7051 67.8069 58.6049Z" fill="#1F1F21"/>
<path d="M75.4039 57.5196L74.0514 61.4725H73.3203L71.9983 57.5196H72.6105L73.4698 60.1839L73.7135 60.9647L73.9631 60.1839L74.8255 57.5196H75.4039Z" fill="#1F1F21"/>
<path d="M79.9411 57.9732H79.0247V57.5215H81.4067V57.9732H80.4896V61.0131H81.4067V61.4725H79.0247V61.0131H79.9411V57.9732Z" fill="#1F1F21"/>
<path d="M88.0424 61.3247C87.7245 61.4544 87.3839 61.5202 87.0402 61.5183C86.477 61.5183 86.0437 61.3514 85.7404 61.0176C85.4371 60.6838 85.2854 60.1903 85.2854 59.5373C85.2816 59.2463 85.3237 58.9565 85.4102 58.6785C85.4839 58.4395 85.6053 58.2176 85.767 58.0261C85.9203 57.8487 86.1118 57.7078 86.3273 57.6138C86.5601 57.5143 86.8115 57.4648 87.0649 57.4686C87.2376 57.4675 87.41 57.483 87.5797 57.515C87.7362 57.5464 87.8887 57.5946 88.0346 57.6589V58.1881C87.8931 58.1105 87.7428 58.0501 87.5868 58.008C87.4219 57.9646 87.2518 57.9429 87.0812 57.9435C86.9063 57.941 86.733 57.9766 86.5736 58.048C86.4228 58.1173 86.2908 58.221 86.1882 58.3507C86.0764 58.495 85.9937 58.6593 85.9445 58.8346C85.8849 59.0467 85.8562 59.2662 85.8593 59.4863C85.8593 59.9987 85.9639 60.3848 86.1732 60.6446C86.3825 60.9044 86.6891 61.0346 87.0929 61.035C87.2583 61.0355 87.4231 61.0156 87.5836 60.9756C87.7394 60.9369 87.8906 60.8817 88.0346 60.8111L88.0424 61.3247Z" fill="#1F1F21"/>
<path d="M94.3993 61.4725H92.1357V57.5196H94.3993V57.9713H92.6796V59.1973H94.3337V59.649H92.6796V61.0105H94.4006L94.3993 61.4725Z" fill="#1F1F21"/>
<path d="M107.842 57.5196L107.574 61.4725H106.87L106.377 60.0665L106.24 59.6148L106.097 60.1019L105.642 61.4719H104.963L104.689 57.5189H105.201L105.356 60.2078L105.402 60.946L105.597 60.3194L106.079 58.8527H106.454L107.008 60.4252L107.194 60.946L107.206 60.4014L107.364 57.5189L107.842 57.5196Z" fill="#1F1F21"/>
<path d="M112.502 57.9732H111.585V57.5215H113.968V57.9732H113.051V61.0131H113.968V61.4725H111.585V61.0131H112.502V57.9732Z" fill="#1F1F21"/>
<path d="M120.742 57.979H119.563V61.4725H119.015V57.979H117.836V57.5196H120.742V57.979Z" fill="#1F1F21"/>
<path d="M127.182 61.4725H126.64V59.658H124.967V61.4725H124.425V57.5196H124.967V59.1921H126.64V57.5196H127.182V61.4725Z" fill="#1F1F21"/>
<path d="M139.988 61.4725H137.724V57.5196H139.988V57.9713H138.267V59.1973H139.921V59.649H138.267V61.0105H139.988V61.4725Z" fill="#1F1F21"/>
<path d="M146.982 61.4725H146.299L145.33 59.8755L144.359 61.4725H143.679L145.005 59.4522L143.786 57.5164H144.429L145.339 59.0044L146.256 57.5164H146.88L145.66 59.4296L146.982 61.4725Z" fill="#1F1F21"/>
<path d="M153.168 61.3247C152.85 61.4544 152.51 61.5202 152.166 61.5183C151.603 61.5183 151.17 61.3514 150.866 61.0176C150.563 60.6838 150.411 60.1903 150.411 59.5373C150.408 59.2463 150.45 58.9565 150.536 58.6785C150.61 58.4396 150.731 58.2178 150.893 58.0261C151.046 57.8487 151.238 57.7078 151.453 57.6138C151.686 57.5143 151.937 57.4648 152.191 57.4686C152.364 57.4675 152.536 57.483 152.706 57.515C152.862 57.5463 153.015 57.5945 153.161 57.6589V58.1881C153.019 58.1104 152.869 58.0499 152.713 58.008C152.548 57.9645 152.378 57.9428 152.207 57.9435C152.032 57.941 151.859 57.9766 151.7 58.048C151.549 58.1174 151.417 58.2211 151.314 58.3507C151.202 58.495 151.12 58.6593 151.07 58.8346C151.011 59.0467 150.982 59.2662 150.985 59.4863C150.985 59.9987 151.09 60.3848 151.299 60.6446C151.508 60.9044 151.815 61.0346 152.22 61.035C152.385 61.0355 152.549 61.0156 152.71 60.9756C152.865 60.9369 153.017 60.8817 153.161 60.8111L153.168 61.3247Z" fill="#1F1F21"/>
<path d="M159.526 61.4725H157.262V57.5196H159.526V57.9713H157.802V59.1973H159.456V59.649H157.802V61.0105H159.524L159.526 61.4725Z" fill="#1F1F21"/>
<path d="M166.163 61.4725H163.872V57.5196H164.424V61.0131H166.163V61.4725Z" fill="#1F1F21"/>
<path d="M172.676 61.4725H170.385V57.5196H170.936V61.0131H172.676V61.4725Z" fill="#1F1F21"/>
<path d="M179.063 61.4725H176.8V57.5196H179.063V57.9713H177.342V59.1973H178.997V59.649H177.342V61.0105H179.063V61.4725Z" fill="#1F1F21"/>
<path d="M185.771 61.4725H185.064L183.903 59.0076L183.569 58.2152V61.4725H183.063V57.5196H183.76L184.865 59.8542L185.264 60.7575V57.5196H185.77L185.771 61.4725Z" fill="#1F1F21"/>
<path d="M192.244 61.3247C191.926 61.4546 191.585 61.5204 191.242 61.5183C190.679 61.5183 190.247 61.3514 189.946 61.0176C189.645 60.6838 189.494 60.1903 189.491 59.5373C189.487 59.2463 189.53 58.9565 189.616 58.6785C189.69 58.4396 189.811 58.2178 189.972 58.0261C190.126 57.8487 190.318 57.7078 190.533 57.6138C190.766 57.5142 191.017 57.4648 191.27 57.4686C191.443 57.4675 191.615 57.483 191.785 57.5151C191.942 57.5463 192.094 57.5945 192.24 57.6589V58.1881C192.099 58.1112 191.949 58.0514 191.794 58.01C191.629 57.9665 191.459 57.9448 191.288 57.9454C191.113 57.9429 190.94 57.9786 190.781 58.05C190.63 58.119 190.498 58.2228 190.396 58.3526C190.283 58.4966 190.201 58.661 190.152 58.8366C190.092 59.0486 190.063 59.2681 190.066 59.4883C190.066 60.0006 190.171 60.3867 190.38 60.6466C190.589 60.9064 190.896 61.0365 191.3 61.0369C191.467 61.0379 191.632 61.0181 191.794 60.9782C191.949 60.9393 192.1 60.8842 192.244 60.8137V61.3247Z" fill="#1F1F21"/>
<path d="M198.602 61.4725H196.338V57.5196H198.602V57.9713H196.88V59.1973H198.535V59.649H196.88V61.0105H198.602V61.4725Z" fill="#1F1F21"/>
</svg>
